<svg version="1.1" xmlns="http://www.w3.org/2000/svg" width="134" height="111">

<path d="M0 0 C0.78117187 -0.01160156 1.56234375 -0.02320312 2.3671875 -0.03515625 C8.51700589 -0.00409656 12.7423225 1.2955602 17.375 5.5625 C19.608371 9.42794981 19.29941743 11.95859292 19 16.375 C16.69 16.705 14.38 17.035 12 17.375 C11.525625 16.240625 11.05125 15.10625 10.5625 13.9375 C9.36377917 10.61759834 9.36377917 10.61759834 8 9.375 C5.3226862 9.27518786 2.67695825 9.23620125 0 9.25 C-0.75023438 9.24613281 -1.50046875 9.24226563 -2.2734375 9.23828125 C-5.93606117 8.89824459 -5.93606117 8.89824459 -9 10.375 C-9.30523962 15.02588715 -9.30523962 15.02588715 -8 19.375 C-6.2984375 19.41367187 -6.2984375 19.41367187 -4.5625 19.453125 C12.91461157 20.0342748 12.91461157 20.0342748 19 26.5 C20.9736221 32.17416353 20.94607071 37.37369658 18.375 42.8125 C14.45455865 47.04244988 10.7232823 48.5217034 5.03125 48.80859375 C3.18757925 48.82573804 1.34369622 48.82664272 -0.5 48.8125 C-1.42425781 48.83248047 -2.34851563 48.85246094 -3.30078125 48.87304688 C-9.18840054 48.86883542 -12.49457923 48.23575446 -17 44.375 C-19.8076449 40.80163377 -19.21365543 36.7193271 -19 32.375 C-18 31.375 -18 31.375 -15.0625 31.1875 C-12 31.375 -12 31.375 -10 33.375 C-9.59952556 35.69775177 -9.2602896 38.03239357 -9 40.375 C-6.20775927 40.45571788 -3.41783434 40.51535408 -0.625 40.5625 C0.56609375 40.60020508 0.56609375 40.60020508 1.78125 40.63867188 C3.85586148 40.66504405 5.93100865 40.52986462 8 40.375 C10.43769218 36.71846173 10.23944439 34.68499899 10 30.375 C7.7203702 28.0953702 1.22505328 29.0728329 -2.03515625 29.03320312 C-8.6833396 28.79849714 -13.08346314 27.29750114 -17.91015625 22.4609375 C-20.06186248 18.34261804 -19.58070702 13.87711057 -19 9.375 C-15.08991503 0.95327853 -8.46542705 -0.12572416 0 0 Z " fill="#55F4D1" transform="translate(68,25.625)" data-index="1" style="opacity: 1;"></path>
<path d="M0 0 C26.4 0 52.8 0 80 0 C80 13.2 80 26.4 80 40 C79.34 40 78.68 40 78 40 C78 27.46 78 14.92 78 2 C52.92 2 27.84 2 2 2 C2 27.08 2 52.16 2 78 C14.54 78 27.08 78 40 78 C40 78.66 40 79.32 40 80 C26.8 80 13.6 80 0 80 C0 53.6 0 27.2 0 0 Z " fill="#75D5C5" transform="translate(30,11)" data-index="2" style="opacity: 1;"></path>
</svg>